<mxfile host="app.diagrams.net" modified="2024-03-27T05:52:19.277Z" agent="Mozilla/5.0 (Windows NT 10.0; Win64; x64) AppleWebKit/537.36 (KHTML, like Gecko) Chrome/123.0.0.0 Safari/537.36" version="24.0.2" etag="0Rn6xLsMsy1DI7kgNjsz" type="github">
  <diagram name="第 1 页" id="lZAJXZIx9JBAn4e9SfRX">
    <mxGraphModel>
      <root>
        <mxCell id="0" />
        <mxCell id="1" parent="0" />
      </root>
    </mxGraphModel>
  </diagram>
</mxfile>
